<?xml version="1.0" encoding="UTF-8"?>
<svg width="128px" height="128px" viewBox="0 0 128 128" version="1.1" xmlns="http://www.w3.org/2000/svg">
    <g stroke="none" stroke-width="1" fill="none" fill-rule="evenodd">
        <g fill-rule="nonzero" fill="#0084FF">
            <path d="M118.665056,68.5676973 C119.554528,69.4547182 120,70.5057571 120,71.7188526 C120,72.9321933 119.554283,73.9824967 118.668243,74.868537 C117.782938,75.7553127 116.731899,76.1990684 115.518558,76.1990684 L99.8392743,76.1990684 C99.8392743,84.1780889 98.2763228,90.9447494 95.149194,96.4980693 L109.709282,111.12705 C110.593852,112.013335 111.038343,113.063394 111.038343,114.276734 C111.038343,115.490075 110.593606,116.540624 109.709282,117.427399 C108.867863,118.314175 107.818295,118.757195 106.557882,118.757195 C105.297714,118.757195 104.249862,118.314175 103.408197,117.427399 L89.5478211,103.638367 C89.3146655,103.870787 88.965545,104.173816 88.4975177,104.547944 C88.0312065,104.922071 87.0512666,105.586724 85.5576979,106.543128 C84.0658454,107.499532 82.5470243,108.350267 81.0085897,109.097787 C79.4681937,109.844572 77.5541604,110.521483 75.2672253,111.127295 C72.9810257,111.734824 70.7183623,112.038588 68.4789899,112.038588 L68.4789899,49.3204707 L59.5188036,49.3204707 L59.5188036,112.038588 C57.1389495,112.038588 54.7708634,111.723056 52.41381,111.092236 C50.0577373,110.463133 48.0277391,109.692812 46.3238155,108.783236 C44.6211178,107.871208 43.0814574,106.960896 41.7043439,106.051319 C40.3269852,105.141743 39.3127216,104.385397 38.6595918,103.777623 L37.6090432,102.795967 L24.799951,117.285937 C23.8661028,118.267593 22.7464166,118.755724 21.4396666,118.755724 C20.3197352,118.755724 19.3169946,118.381597 18.4302188,117.635057 C17.543443,116.794128 17.0651186,115.755593 16.9954906,114.520677 C16.9251272,113.284781 17.2867512,112.200154 18.0803628,111.266061 L32.219251,95.3769121 C29.5130771,90.0582188 28.1592547,83.6634795 28.1592547,76.1988232 L12.4799706,76.1988232 C11.2666299,76.1988232 10.2168168,75.7540869 9.33028623,74.8673111 C8.44351047,73.9820064 8,72.9307223 8,71.7173816 C8,70.5050216 8.44351047,69.4537375 9.33028623,68.5676973 C10.2168168,67.6809215 11.2666299,67.2371658 12.4799706,67.2371658 L28.1592547,67.2371658 L28.1592547,46.6579369 L16.049384,34.5480662 C15.1626082,33.6617808 14.7195881,32.6117226 14.7195881,31.3976464 C14.7195881,30.184796 15.1626082,29.1347378 16.049384,28.247962 C16.9361598,27.3616766 17.9857277,26.9181661 19.1998039,26.9181661 C20.4131446,26.9181661 21.4627124,27.3614314 22.3494882,28.247962 L34.4593589,40.3578327 L93.5367184,40.3578327 L105.647079,28.247962 C106.53312,27.3616766 107.583423,26.9181661 108.796764,26.9181661 C110.010104,26.9181661 111.060408,27.3614314 111.946448,28.247962 C112.832734,29.134983 113.277225,30.184796 113.277225,31.3976464 C113.277225,32.6117226 112.832488,33.6617808 111.946448,34.5480662 L99.8360871,46.6579369 L99.8360871,67.2371658 L115.515371,67.2371658 C116.728712,67.2371658 117.780977,67.6809215 118.665056,68.5676973 Z M79.8543347,15.5450279 C84.2171145,19.9082981 86.3978915,25.1941387 86.3978915,31.3993626 L41.6016181,31.3993626 C41.6016181,25.193158 43.7826403,19.9082981 48.1454202,15.5450279 C52.5089355,11.182248 57.7925696,9 64,9 C70.2064497,9 75.4915548,11.182248 79.8543347,15.5450279 Z" id="Combined-Shape"></path>
        </g>
    </g>
</svg>